<svg width="240" height="63" viewBox="0 0 240 63" fill="none" xmlns="http://www.w3.org/2000/svg">
<rect width="240" height="63" fill="black"/>
<circle cx="19" cy="41" r="5" fill="#F25F3A"/>
<circle cx="34" cy="21" r="5" fill="#F25F3A"/>
<circle cx="34" cy="41" r="5" fill="#F6866A"/>
<circle cx="19" cy="21" r="5" fill="#F25F3A"/>
<path d="M54.2508 40H48.9548V21.248H51.0668C51.6321 21.248 52.4855 21.2267 53.6268 21.184C54.7681 21.1307 55.7068 21.104 56.4428 21.104C58.5121 21.104 60.0801 21.6533 61.1468 22.752C62.2135 23.8507 62.7468 25.4987 62.7468 27.696C62.7468 29.0187 62.5708 30.224 62.2188 31.312C61.8775 32.3893 61.4135 33.2747 60.8268 33.968C60.2401 34.6613 59.5735 35.1947 58.8268 35.568C58.0801 35.9413 57.2908 36.128 56.4588 36.128C56.3521 36.128 56.2401 36.128 56.1228 36.128C56.0161 36.128 55.9148 36.128 55.8188 36.128C55.7335 36.1173 55.6268 36.112 55.4988 36.112C55.3815 36.1013 55.2855 36.096 55.2108 36.096C55.1468 36.0853 55.0508 36.08 54.9228 36.08C54.8055 36.0693 54.7255 36.064 54.6828 36.064C54.6401 36.064 54.5601 36.0587 54.4428 36.048C54.3255 36.0373 54.2615 36.032 54.2508 36.032V40ZM57.4988 26.992C57.4988 26.2027 57.2855 25.5627 56.8588 25.072C56.4321 24.5813 55.8188 24.336 55.0188 24.336H54.2508V32.656H54.8428C55.6855 32.656 56.3361 32.3733 56.7948 31.808C57.2641 31.2427 57.4988 30.4267 57.4988 29.36V26.992ZM73.1548 40L72.4348 37.008H67.8908L67.2828 40H62.5788L67.4588 22.544L67.0748 21.248H73.6828L79.0268 40H73.1548ZM69.9548 26.752L68.5468 33.744H71.6508L69.9548 26.752ZM79.6579 40V21.248H84.9539V35.712H89.7219V40H79.6579ZM95.2532 40H90.4372L91.9252 21.248H99.4292L100.837 27.536L101.477 30.72L102.085 27.552L103.333 21.248H110.021L111.397 40H106.421L105.605 28.976L105.413 24.912L102.965 38.128H98.7892L95.8452 24.912L95.7492 28.976L95.2532 40ZM124.639 38.672L124.495 38.848C124.388 38.9547 124.207 39.0933 123.951 39.264C123.705 39.424 123.407 39.5893 123.055 39.76C122.713 39.92 122.255 40.0533 121.679 40.16C121.103 40.2773 120.484 40.336 119.823 40.336C118.425 40.336 117.231 40.1067 116.239 39.648C115.247 39.1787 114.468 38.5013 113.903 37.616C113.348 36.72 112.948 35.712 112.703 34.592C112.457 33.4613 112.335 32.1547 112.335 30.672C112.335 29.0933 112.457 27.7333 112.703 26.592C112.948 25.44 113.353 24.432 113.919 23.568C114.495 22.6933 115.284 22.0373 116.287 21.6C117.289 21.1627 118.511 20.944 119.951 20.944C120.612 20.944 121.231 21.0027 121.807 21.12C122.393 21.2373 122.852 21.3707 123.183 21.52C123.524 21.6693 123.828 21.84 124.095 22.032C124.372 22.224 124.543 22.3573 124.607 22.432C124.681 22.5067 124.735 22.5653 124.767 22.608L124.527 26.288H122.095L121.263 24.384C121.071 24.3307 120.911 24.304 120.783 24.304C120.068 24.304 119.519 24.4693 119.135 24.8C118.751 25.12 118.457 25.7547 118.255 26.704C118.052 27.6427 117.951 28.9973 117.951 30.768C117.951 31.824 118.015 32.7467 118.143 33.536C118.281 34.3253 118.447 34.9333 118.639 35.36C118.831 35.776 119.06 36.112 119.327 36.368C119.593 36.624 119.833 36.7893 120.047 36.864C120.26 36.928 120.489 36.96 120.735 36.96C121.279 36.96 121.849 36.896 122.447 36.768C123.044 36.6293 123.535 36.4213 123.919 36.144L124.639 38.672ZM126.064 40V21.248H131.36V35.712H136.128V40H126.064ZM143.019 32.752C143.019 34.5227 143.153 35.7547 143.419 36.448C143.697 37.1413 144.177 37.488 144.859 37.488C145.361 37.488 145.739 37.3653 145.995 37.12C146.251 36.864 146.443 36.3467 146.571 35.568C146.71 34.7787 146.779 33.6 146.779 32.032V28.176C146.779 26.6507 146.63 25.5147 146.331 24.768C146.033 24.0213 145.542 23.648 144.859 23.648C144.177 23.648 143.697 24.016 143.419 24.752C143.153 25.4773 143.019 26.8053 143.019 28.736V32.752ZM144.523 40.336C143.638 40.336 142.838 40.256 142.123 40.096C141.419 39.936 140.811 39.712 140.299 39.424C139.787 39.136 139.339 38.768 138.955 38.32C138.582 37.872 138.278 37.392 138.043 36.88C137.819 36.368 137.638 35.7707 137.499 35.088C137.361 34.3947 137.265 33.7067 137.211 33.024C137.158 32.3307 137.131 31.552 137.131 30.688C137.131 29.408 137.195 28.2933 137.323 27.344C137.462 26.3947 137.713 25.504 138.075 24.672C138.438 23.8293 138.918 23.1467 139.515 22.624C140.123 22.1013 140.902 21.6907 141.851 21.392C142.811 21.0933 143.942 20.944 145.243 20.944C146.139 20.944 146.945 21.0293 147.659 21.2C148.374 21.36 148.987 21.584 149.499 21.872C150.011 22.16 150.454 22.5333 150.827 22.992C151.211 23.4507 151.515 23.9413 151.739 24.464C151.974 24.976 152.161 25.5787 152.299 26.272C152.438 26.9653 152.534 27.6533 152.587 28.336C152.641 29.0187 152.667 29.792 152.667 30.656C152.667 31.936 152.598 33.0507 152.459 34C152.321 34.9493 152.07 35.84 151.707 36.672C151.345 37.4933 150.859 38.1653 150.251 38.688C149.643 39.2 148.859 39.6053 147.899 39.904C146.95 40.192 145.825 40.336 144.523 40.336ZM161.578 40.336C160.479 40.336 159.503 40.2293 158.65 40.016C157.807 39.8027 157.114 39.5147 156.57 39.152C156.036 38.7893 155.594 38.3413 155.242 37.808C154.9 37.264 154.66 36.6933 154.522 36.096C154.383 35.4987 154.314 34.8373 154.314 34.112V21.248H160.01V33.392C160.01 34.7467 160.148 35.68 160.426 36.192C160.714 36.6933 161.13 36.944 161.674 36.944C161.972 36.944 162.234 36.896 162.458 36.8C162.682 36.6933 162.89 36.5173 163.082 36.272C163.274 36.016 163.418 35.6533 163.514 35.184C163.62 34.704 163.674 34.1227 163.674 33.44V21.248H168.73V34.208C168.73 34.9227 168.666 35.568 168.538 36.144C168.42 36.72 168.196 37.28 167.866 37.824C167.546 38.3573 167.119 38.8053 166.586 39.168C166.063 39.52 165.375 39.8027 164.522 40.016C163.679 40.2293 162.698 40.336 161.578 40.336ZM177.197 37.376C178.007 37.376 178.626 36.8747 179.053 35.872C179.49 34.8693 179.709 33.216 179.709 30.912V29.296C179.709 27.6107 179.506 26.3093 179.101 25.392C178.695 24.4747 178.119 24.016 177.373 24.016H176.173V37.376H177.197ZM177.693 40.112C177.309 40.112 176.711 40.0907 175.901 40.048C175.101 40.016 174.274 40 173.421 40H170.877V21.248H173.421C174.135 21.2373 174.914 21.2107 175.757 21.168C176.599 21.1253 177.261 21.104 177.741 21.104C180.461 21.104 182.407 21.8667 183.581 23.392C184.765 24.9173 185.357 27.1413 185.357 30.064C185.357 31.056 185.287 32 185.149 32.896C185.021 33.792 184.775 34.6933 184.413 35.6C184.05 36.496 183.591 37.2693 183.037 37.92C182.482 38.5707 181.746 39.0987 180.829 39.504C179.911 39.9093 178.866 40.112 177.693 40.112ZM188.669 40.304L186.045 37.664V37.104L188.669 34.48H189.277L192.013 37.104V37.664L189.277 40.304H188.669ZM200.512 38.576L200.352 38.752C200.245 38.88 200.08 39.0293 199.856 39.2C199.642 39.3707 199.392 39.5413 199.104 39.712C198.826 39.8827 198.485 40.0267 198.08 40.144C197.674 40.272 197.258 40.336 196.832 40.336C193.952 40.336 192.512 38.912 192.512 36.064C192.512 35.5093 192.613 35.0027 192.816 34.544C193.018 34.0747 193.28 33.68 193.6 33.36C193.92 33.04 194.304 32.7573 194.752 32.512C195.2 32.256 195.648 32.0587 196.096 31.92C196.554 31.7707 197.034 31.648 197.536 31.552C198.037 31.456 198.485 31.392 198.88 31.36C199.274 31.328 199.653 31.312 200.016 31.312V31.024C200.016 30.3733 199.84 29.9147 199.488 29.648C199.146 29.3813 198.592 29.248 197.824 29.248C197.162 29.248 196.474 29.328 195.76 29.488C195.045 29.6373 194.485 29.8187 194.08 30.032L193.056 27.856C193.781 27.3867 194.725 26.976 195.888 26.624C197.05 26.2613 198.234 26.08 199.44 26.08C200.506 26.08 201.386 26.1867 202.08 26.4C202.773 26.6027 203.333 26.9547 203.76 27.456C204.197 27.9467 204.506 28.576 204.688 29.344C204.869 30.1013 204.96 31.0667 204.96 32.24V38.752L205.408 40H201.024L200.512 38.576ZM199.248 37.52C199.386 37.52 199.514 37.4933 199.632 37.44C199.76 37.376 199.856 37.3173 199.92 37.264C199.984 37.2 200.016 37.168 200.016 37.168V33.328C199.365 33.328 198.848 33.5093 198.464 33.872C198.08 34.224 197.888 34.7733 197.888 35.52C197.888 36.8533 198.341 37.52 199.248 37.52ZM207.006 40V29.648L206.046 29.056V27.344L209.486 26.4H212.158V40H207.006ZM209.326 24.928L206.702 22.288V21.728L209.326 19.104H209.934L212.67 21.728V22.288L209.934 24.928H209.326Z" fill="white"/>
</svg>
