<svg width="240" height="63" viewBox="0 0 240 63" fill="none" xmlns="http://www.w3.org/2000/svg">
<rect width="240" height="63" fill="white"/>
<circle cx="19" cy="41" r="5" fill="#F25F3A"/>
<circle cx="34" cy="21" r="5" fill="#F25F3A"/>
<circle cx="34" cy="41" r="5" fill="#F6866A"/>
<circle cx="19" cy="21" r="5" fill="#F25F3A"/>
<path d="M67.9149 40H62.6189V21.248H64.7309C65.2962 21.248 66.1495 21.2267 67.2909 21.184C68.4322 21.1307 69.3709 21.104 70.1069 21.104C72.1762 21.104 73.7442 21.6533 74.8109 22.752C75.8775 23.8507 76.4109 25.4987 76.4109 27.696C76.4109 29.0187 76.2349 30.224 75.8829 31.312C75.5415 32.3893 75.0775 33.2747 74.4909 33.968C73.9042 34.6613 73.2375 35.1947 72.4909 35.568C71.7442 35.9413 70.9549 36.128 70.1229 36.128C70.0162 36.128 69.9042 36.128 69.7869 36.128C69.6802 36.128 69.5789 36.128 69.4829 36.128C69.3975 36.1173 69.2909 36.112 69.1629 36.112C69.0455 36.1013 68.9495 36.096 68.8749 36.096C68.8109 36.0853 68.7149 36.08 68.5869 36.08C68.4695 36.0693 68.3895 36.064 68.3469 36.064C68.3042 36.064 68.2242 36.0587 68.1069 36.048C67.9895 36.0373 67.9255 36.032 67.9149 36.032V40ZM71.1629 26.992C71.1629 26.2027 70.9495 25.5627 70.5229 25.072C70.0962 24.5813 69.4829 24.336 68.6829 24.336H67.9149V32.656H68.5069C69.3495 32.656 70.0002 32.3733 70.4589 31.808C70.9282 31.2427 71.1629 30.4267 71.1629 29.36V26.992ZM86.8189 40L86.0989 37.008H81.5549L80.9469 40H76.2429L81.1229 22.544L80.7389 21.248H87.3469L92.6909 40H86.8189ZM83.6189 26.752L82.2109 33.744H85.3149L83.6189 26.752ZM93.322 40V21.248H98.618V35.712H103.386V40H93.322ZM108.917 40H104.101L105.589 21.248H113.093L114.501 27.536L115.141 30.72L115.749 27.552L116.997 21.248H123.685L125.061 40H120.085L119.269 28.976L119.077 24.912L116.629 38.128H112.453L109.509 24.912L109.413 28.976L108.917 40ZM138.303 38.672L138.159 38.848C138.052 38.9547 137.871 39.0933 137.615 39.264C137.369 39.424 137.071 39.5893 136.719 39.76C136.377 39.92 135.919 40.0533 135.343 40.16C134.767 40.2773 134.148 40.336 133.487 40.336C132.089 40.336 130.895 40.1067 129.903 39.648C128.911 39.1787 128.132 38.5013 127.567 37.616C127.012 36.72 126.612 35.712 126.367 34.592C126.121 33.4613 125.999 32.1547 125.999 30.672C125.999 29.0933 126.121 27.7333 126.367 26.592C126.612 25.44 127.017 24.432 127.583 23.568C128.159 22.6933 128.948 22.0373 129.951 21.6C130.953 21.1627 132.175 20.944 133.615 20.944C134.276 20.944 134.895 21.0027 135.471 21.12C136.057 21.2373 136.516 21.3707 136.847 21.52C137.188 21.6693 137.492 21.84 137.759 22.032C138.036 22.224 138.207 22.3573 138.271 22.432C138.345 22.5067 138.399 22.5653 138.431 22.608L138.191 26.288H135.759L134.927 24.384C134.735 24.3307 134.575 24.304 134.447 24.304C133.732 24.304 133.183 24.4693 132.799 24.8C132.415 25.12 132.121 25.7547 131.919 26.704C131.716 27.6427 131.615 28.9973 131.615 30.768C131.615 31.824 131.679 32.7467 131.807 33.536C131.945 34.3253 132.111 34.9333 132.303 35.36C132.495 35.776 132.724 36.112 132.991 36.368C133.257 36.624 133.497 36.7893 133.711 36.864C133.924 36.928 134.153 36.96 134.399 36.96C134.943 36.96 135.513 36.896 136.111 36.768C136.708 36.6293 137.199 36.4213 137.583 36.144L138.303 38.672ZM139.728 40V21.248H145.024V35.712H149.792V40H139.728ZM156.683 32.752C156.683 34.5227 156.817 35.7547 157.084 36.448C157.361 37.1413 157.841 37.488 158.524 37.488C159.025 37.488 159.404 37.3653 159.66 37.12C159.916 36.864 160.108 36.3467 160.235 35.568C160.374 34.7787 160.443 33.6 160.443 32.032V28.176C160.443 26.6507 160.294 25.5147 159.996 24.768C159.697 24.0213 159.206 23.648 158.524 23.648C157.841 23.648 157.361 24.016 157.084 24.752C156.817 25.4773 156.683 26.8053 156.683 28.736V32.752ZM158.188 40.336C157.302 40.336 156.502 40.256 155.788 40.096C155.084 39.936 154.475 39.712 153.963 39.424C153.452 39.136 153.004 38.768 152.62 38.32C152.246 37.872 151.942 37.392 151.707 36.88C151.484 36.368 151.302 35.7707 151.163 35.088C151.025 34.3947 150.929 33.7067 150.875 33.024C150.822 32.3307 150.796 31.552 150.796 30.688C150.796 29.408 150.859 28.2933 150.987 27.344C151.126 26.3947 151.377 25.504 151.739 24.672C152.102 23.8293 152.582 23.1467 153.18 22.624C153.787 22.1013 154.566 21.6907 155.516 21.392C156.476 21.0933 157.606 20.944 158.907 20.944C159.803 20.944 160.609 21.0293 161.323 21.2C162.038 21.36 162.651 21.584 163.163 21.872C163.675 22.16 164.118 22.5333 164.492 22.992C164.876 23.4507 165.18 23.9413 165.404 24.464C165.638 24.976 165.825 25.5787 165.963 26.272C166.102 26.9653 166.198 27.6533 166.252 28.336C166.305 29.0187 166.332 29.792 166.332 30.656C166.332 31.936 166.262 33.0507 166.123 34C165.985 34.9493 165.734 35.84 165.371 36.672C165.009 37.4933 164.523 38.1653 163.915 38.688C163.307 39.2 162.523 39.6053 161.564 39.904C160.614 40.192 159.489 40.336 158.188 40.336ZM175.242 40.336C174.143 40.336 173.167 40.2293 172.314 40.016C171.471 39.8027 170.778 39.5147 170.234 39.152C169.701 38.7893 169.258 38.3413 168.906 37.808C168.565 37.264 168.325 36.6933 168.186 36.096C168.047 35.4987 167.978 34.8373 167.978 34.112V21.248H173.674V33.392C173.674 34.7467 173.813 35.68 174.09 36.192C174.378 36.6933 174.794 36.944 175.338 36.944C175.637 36.944 175.898 36.896 176.122 36.8C176.346 36.6933 176.554 36.5173 176.746 36.272C176.938 36.016 177.082 35.6533 177.178 35.184C177.285 34.704 177.338 34.1227 177.338 33.44V21.248H182.394V34.208C182.394 34.9227 182.33 35.568 182.202 36.144C182.085 36.72 181.861 37.28 181.53 37.824C181.21 38.3573 180.783 38.8053 180.25 39.168C179.727 39.52 179.039 39.8027 178.186 40.016C177.343 40.2293 176.362 40.336 175.242 40.336ZM190.861 37.376C191.671 37.376 192.29 36.8747 192.717 35.872C193.154 34.8693 193.373 33.216 193.373 30.912V29.296C193.373 27.6107 193.17 26.3093 192.765 25.392C192.359 24.4747 191.783 24.016 191.037 24.016H189.837V37.376H190.861ZM191.357 40.112C190.973 40.112 190.375 40.0907 189.565 40.048C188.765 40.016 187.938 40 187.085 40H184.541V21.248H187.085C187.799 21.2373 188.578 21.2107 189.421 21.168C190.263 21.1253 190.925 21.104 191.405 21.104C194.125 21.104 196.071 21.8667 197.245 23.392C198.429 24.9173 199.021 27.1413 199.021 30.064C199.021 31.056 198.951 32 198.813 32.896C198.685 33.792 198.439 34.6933 198.077 35.6C197.714 36.496 197.255 37.2693 196.701 37.92C196.146 38.5707 195.41 39.0987 194.493 39.504C193.575 39.9093 192.53 40.112 191.357 40.112Z" fill="black"/>
</svg>
